HIERARCHY
ROOT Hips
{
 OFFSET 0.000000 0.000000 0.000000
 CHANNELS 6 Xposition Yposition Zposition Yrotation Xrotation Zrotation
 JOINT Chest
 {
  OFFSET 0.000000 9.303000 0.001900
  CHANNELS 3 Yrotation Xrotation Zrotation
  JOINT Chest2
  {
   OFFSET 0.000000 9.301100 -0.003900
   CHANNELS 3 Yrotation Xrotation Zrotation
   JOINT Chest3
   {
    OFFSET 0.000000 9.262800 0.000000
    CHANNELS 3 Yrotation Xrotation Zrotation
    JOINT Chest4
    {
     OFFSET 0.000000 9.253300 0.000000
     CHANNELS 3 Yrotation Xrotation Zrotation
     JOINT Neck
     {
      OFFSET 0.000000 14.010300 0.000000
      CHANNELS 3 Yrotation Xrotation Zrotation
      JOINT Head
      {
       OFFSET 0.000000 8.657600 -0.008300
       CHANNELS 3 Yrotation Xrotation Zrotation
       End Site
       {
        OFFSET 0.000000 16.540200 -0.004400
       }
      }
     }
     JOINT RightCollar
     {
      OFFSET -2.834100 9.267700 0.000000
      CHANNELS 3 Yrotation Xrotation Zrotation
      JOINT RightShoulder
      {
       OFFSET -13.135200 0.000000 0.000000
       CHANNELS 3 Yrotation Xrotation Zrotation
       JOINT RightElbow
       {
        OFFSET 0.000000 -28.893500 0.000000
        CHANNELS 3 Yrotation Xrotation Zrotation
        JOINT RightWrist
        {
         OFFSET 0.000000 -23.344000 0.000000
         CHANNELS 3 Yrotation Xrotation Zrotation
         End Site
         {
          OFFSET 0.000000 -17.223000 0.000000
         }
        }
       }
      }
     }
     JOINT LeftCollar
     {
      OFFSET 2.834100 9.267700 0.000000
      CHANNELS 3 Yrotation Xrotation Zrotation
      JOINT LeftShoulder
      {
       OFFSET 13.135200 0.000000 0.000000
       CHANNELS 3 Yrotation Xrotation Zrotation
       JOINT LeftElbow
       {
        OFFSET 0.000000 -28.893500 0.000000
        CHANNELS 3 Yrotation Xrotation Zrotation
        JOINT LeftWrist
        {
         OFFSET 0.000000 -23.344000 0.000000
         CHANNELS 3 Yrotation Xrotation Zrotation
         End Site
         {
          OFFSET 0.000000 -17.223000 0.000000
         }
        }
       }
      }
     }
    }
   }
  }
 }
 JOINT RightHip
 {
  OFFSET -7.547200 -0.009500 -0.001000
  CHANNELS 3 Yrotation Xrotation Zrotation
  JOINT RightKnee
  {
   OFFSET 0.000000 -39.762800 0.000900
   CHANNELS 3 Yrotation Xrotation Zrotation
   JOINT RightAnkle
   {
    OFFSET 0.000000 -38.588200 0.001600
    CHANNELS 3 Yrotation Xrotation Zrotation
    JOINT RightToe
    {
     OFFSET 0.000000 -4.693300 10.419700
     CHANNELS 3 Yrotation Xrotation Zrotation
     End Site
     {
      OFFSET 0.000000 -1.379900 5.669300
     }
    }
   }
  }
 }
 JOINT LeftHip
 {
  OFFSET 7.547200 -0.009500 -0.001000
  CHANNELS 3 Yrotation Xrotation Zrotation
  JOINT LeftKnee
  {
   OFFSET 0.000000 -39.762800 0.000900
   CHANNELS 3 Yrotation Xrotation Zrotation
   JOINT LeftAnkle
   {
    OFFSET 0.000000 -38.588200 0.001600
    CHANNELS 3 Yrotation Xrotation Zrotation
    JOINT LeftToe
    {
     OFFSET 0.000000 -4.693300 10.419700
     CHANNELS 3 Yrotation Xrotation Zrotation
     End Site
     {
      OFFSET 0.000000 -1.379900 5.669300
     }
    }
   }
  }
 }
}
MOTION
Frames: 7
Frame Time: 0.008333
2.826349 45.480707 11.094365 161.442160 -19.346342 1.912886 3.545814 9.677762 2.151262 0.213841 0.618366 0.141547 0.403935 1.034427 0.284736 3.254113 8.988770 2.273045 5.229562 20.161164 -3.440484 6.476794 -4.053822 -4.945094 1.957016 4.297927 -5.600195 1.495282 -6.039122 -6.247606 -64.170546 -84.120526 87.861550 -8.348500 -6.184560 -15.721164 -10.392303 2.392678 -4.252730 8.584099 -7.201497 14.041118 40.621622 -47.159016 -83.073398 9.391164 0.346802 11.761054 -6.402558 -69.811579 4.087697 -146.383225 83.549805 -147.604694 -9.041469 -9.343285 -1.359196 0.025362 -0.285464 0.015416 -6.854072 -65.859710 28.271333 89.910493 76.649797 88.649653 -10.708174 -7.411000 -2.605064 0.172612 0.481968 0.126572
2.823419 45.494617 11.082301 161.394634 -19.254636 1.920988 3.537996 9.660205 2.075330 0.212559 0.614468 0.137777 0.383629 1.044296 0.258690 3.264399 8.951594 2.242811 5.232371 20.039030 -3.321164 6.448063 -4.200963 -4.813339 1.503884 4.405476 -5.678205 1.326277 -5.501080 -5.830914 -70.354227 -84.443554 94.539534 -8.285726 -6.249675 -14.719790 -9.902899 2.867107 -4.007059 9.210755 -6.553291 13.647353 40.870761 -47.737756 -84.234034 9.111862 0.419280 11.047098 -6.524101 -69.873889 4.266716 -146.093075 83.562898 -147.352337 -9.137520 -9.351948 -1.349922 0.037183 -0.277910 0.014463 -6.641326 -65.969138 28.208548 89.962428 76.702235 88.692828 -10.710353 -7.440633 -2.511952 0.145391 0.480000 0.110701
2.820451 45.509160 11.070529 161.333734 -19.159324 1.924547 3.554634 9.637004 2.012903 0.211348 0.610449 0.134324 0.365376 1.052458 0.233035 3.274090 8.913618 2.216700 5.220384 19.926995 -3.196931 6.401780 -4.337480 -4.672637 1.032026 4.531390 -5.770167 1.058583 -5.002030 -5.413577 -76.169694 -84.551395 100.946055 -8.311123 -6.261642 -13.896541 -9.425575 3.296840 -3.763515 9.769320 -5.871070 13.269637 41.154251 -48.296131 -85.298067 8.869716 0.534998 10.476587 -6.583161 -69.947839 4.393286 -145.748395 83.568404 -147.000165 -9.262341 -9.362527 -1.344961 0.003072 -0.267268 0.003287 -6.429821 -66.080654 28.165230 90.007167 76.758500 88.723190 -10.686221 -7.424323 -2.419107 0.114690 0.437003 0.081945
2.812657 45.524292 11.057024 161.302903 -19.065869 1.942866 3.548713 9.614895 1.932758 0.210276 0.606497 0.131229 0.363525 1.045856 0.227688 3.266757 8.890959 2.177433 5.191006 19.824180 -3.073115 6.336355 -4.464298 -4.528303 0.552440 4.667871 -5.878840 0.692321 -4.528795 -5.007395 -81.064247 -84.471116 106.521339 -8.392824 -6.222032 -13.279450 -8.979296 3.672958 -3.528504 10.280933 -5.152041 12.905221 41.451010 -48.834838 -86.251315 8.677291 0.678716 10.057927 -6.571519 -70.027587 4.423868 -145.538378 83.572537 -146.776958 -9.427624 -9.352194 -1.326245 -0.021451 -0.282875 -0.009942 -6.183764 -66.195928 28.056483 90.057285 76.818401 88.757862 -10.685492 -7.445952 -2.334987 0.082701 0.428036 0.084612
2.809789 45.538720 11.046816 161.261389 -18.962158 1.924034 3.580130 9.545161 1.927974 0.196321 0.636766 0.103593 0.362369 1.039718 0.223307 3.264791 8.868339 2.145224 5.142229 19.730384 -2.954708 6.250890 -4.581445 -4.385436 0.075362 4.809191 -6.003414 0.244805 -4.072118 -4.620118 -84.719485 -84.243670 110.927241 -8.505568 -6.141349 -12.887496 -8.571958 4.000966 -3.299044 10.748703 -4.405739 12.545235 41.742086 -49.344111 -87.086601 8.548737 0.827704 9.793256 -6.705559 -70.105193 4.581271 -145.559475 83.594399 -146.829536 -9.260857 -9.343424 -1.343316 0.006719 -0.291659 -0.001398 -6.015458 -66.319958 28.049688 90.130883 76.882138 88.816225 -10.673572 -7.482989 -2.264403 0.030777 0.430796 0.110266
2.811285 45.552767 11.038025 161.220445 -18.859304 1.872708 3.603818 9.525747 1.922015 0.214134 0.583777 0.137315 0.350993 1.066423 0.197739 3.268767 8.844412 2.119444 5.075287 19.647331 -2.845245 6.147765 -4.686600 -4.248147 -0.381073 4.948787 -6.136836 -0.258474 -3.617896 -4.254581 -87.134279 -83.921833 114.126479 -8.631018 -6.047001 -12.717549 -8.204339 4.293242 -3.070592 11.165307 -3.650265 12.181065 42.013472 -49.798556 -87.800141 8.486266 0.961698 9.674657 -6.963915 -70.167908 4.844139 -145.631796 83.626644 -146.938747 -8.989737 -9.348760 -1.375366 0.047165 -0.288907 0.004572 -5.912423 -66.442166 28.115461 90.162393 76.951724 88.856048 -10.690976 -7.520079 -2.200545 0.025459 0.438575 0.114048
2.806361 45.566493 11.027417 161.177352 -18.755116 1.860115 3.628096 9.507721 1.886665 0.228765 0.530634 0.164733 0.342101 1.093158 0.177438 3.278084 8.819339 2.099315 4.994047 19.575845 -2.747010 6.031862 -4.778508 -4.119817 -0.802467 5.077390 -6.270043 -0.785752 -3.151337 -3.912080 -88.546625 -83.554014 116.310646 -8.755594 -5.960946 -12.741908 -7.868630 4.561415 -2.839876 11.517616 -2.909591 11.804136 42.249817 -50.164333 -88.385640 8.479334 1.066882 9.687242 -7.060921 -70.246862 4.954629 -145.646468 83.650002 -146.958063 -8.826453 -9.347961 -1.402384 0.124883 -0.291347 0.008793 -5.705162 -66.569825 28.078477 90.237075 77.016537 88.911619 -10.694390 -7.563147 -2.088545 -0.004748 0.446137 0.098195
